<svg width="120" height="120" viewBox="0 0 120 120" fill="none"
  xmlns="http://www.w3.org/2000/svg">
  <rect width="120" height="120" rx="24" fill="#09090b"/>
  <path d="M38.0464 34.5307C34.1473 29.9385 37.4111 22.8858 43.4353 22.8858H73.9284C74.3433 22.8858 74.7474 22.9194 75.1512 23.0148C78.4656 23.7972 94.3886 28.4871 93.9927 46.3031C93.6013 63.9166 79.3403 68.7007 76.0902 69.5632C75.651 69.6798 75.2068 69.7204 74.7523 69.7204H71.1959C69.1206 69.7204 67.1502 68.8085 65.807 67.2265L38.0464 34.5307Z" fill="white"/>
  <path d="M37.4347 60.6858C34.3934 56.8285 37.1409 51.1633 42.053 51.1633V51.1633C43.8789 51.1633 45.6013 52.0114 46.7146 53.4586L73.337 88.0678C76.1799 91.7636 73.5453 97.1142 68.8826 97.1142V97.1142C67.1614 97.1142 65.5352 96.3255 64.4695 94.9739L37.4347 60.6858Z" fill="white"/>
  <path d="M33.1497 83.5996C30.0806 79.7998 32.7852 74.1387 37.6697 74.1387V74.1387C39.4735 74.1387 41.1751 74.9766 42.2749 76.4064L51.2252 88.0417C54.0763 91.7481 51.434 97.1142 46.7579 97.1142V97.1142C45.055 97.1142 43.4434 96.3442 42.3734 95.0195L33.1497 83.5996Z" fill="white"/>
</svg>
